# xmcd CD database file
# Copyright (C) 1996 Ti Kan
#
# Track frame offsets:
# 	150
# 	12222
# 	23427
# 	46355
# 	63717
# 	84112
# 	101805
# 	112030
# 	130895
# 	154982
# 	176640
# 	191335
# 	224312
# 	242267
#
# Disc length: 3421 seconds
#
# Revision: 1
# Processed by: cddbd v1.4b41PL1 Copyright (c) Steve Scherf et al.
# Submitted via: DiscPlay 3.3.1
#
DISCID=b20d5b0e
DTITLE=Various Artist - The Blues Box CD 1
DYEAR=1900
DGENRE=
TTITLE0=Tell Me What's The Reason
TTITLE1=Steppin' Out
TTITLE2=Who's Gonna Be Your Sweet Man
TTITLE3=She's Into Something
TTITLE4=If You Have To Know
TTITLE5=Greeny
TTITLE6=Dimples
TTITLE7=Statesboro Blues
TTITLE8=I Need My Baby
TTITLE9=Blues For Barry and Michael
TTITLE10=Big Bird
TTITLE11=Pete's Blues
TTITLE12=Gate Walks to Board
TTITLE13=So Many Roads
EXTD=
EXTT0=
EXTT1=
EXTT2=
EXTT3=
EXTT4=
EXTT5=
EXTT6=
EXTT7=
EXTT8=
EXTT9=
EXTT10=
EXTT11=
EXTT12=
EXTT13=
PLAYORDER=
